<svg xmlns="http://www.w3.org/2000/svg" width="18.22" height="18.22" viewBox="0 0 18.22 18.22">
  <g id="Group_881" data-name="Group 881" transform="translate(-117.5 -35)">
    <path id="Polygon_8" data-name="Polygon 8" d="M10,.868a1.824,1.824,0,0,1,2.458.659h0A1.824,1.824,0,0,0,14,2.417h0a1.824,1.824,0,0,1,1.8,1.8h0a1.824,1.824,0,0,0,.891,1.543h0a1.824,1.824,0,0,1,.659,2.458h0a1.824,1.824,0,0,0,0,1.782h0a1.824,1.824,0,0,1-.659,2.458h0A1.824,1.824,0,0,0,15.8,14h0A1.824,1.824,0,0,1,14,15.8h0a1.824,1.824,0,0,0-1.543.891h0A1.824,1.824,0,0,1,10,17.352h0a1.824,1.824,0,0,0-1.782,0h0a1.824,1.824,0,0,1-2.458-.659h0A1.824,1.824,0,0,0,4.217,15.8h0a1.824,1.824,0,0,1-1.8-1.8h0a1.824,1.824,0,0,0-.891-1.543h0A1.824,1.824,0,0,1,.868,10h0a1.824,1.824,0,0,0,0-1.782h0A1.824,1.824,0,0,1,1.526,5.76h0a1.824,1.824,0,0,0,.891-1.543h0a1.824,1.824,0,0,1,1.8-1.8h0A1.824,1.824,0,0,0,5.76,1.526h0A1.824,1.824,0,0,1,8.219.868h0A1.824,1.824,0,0,0,10,.868Z" transform="translate(117.5 35)" fill="#f63e02"/>
    <g id="Group_874" data-name="Group 874" transform="translate(122.367 40.984)">
      <path id="Path_831" data-name="Path 831" d="M15.724,9.525a.893.893,0,0,0-1.263-1.263L10.626,12.1l-1.6-1.6a.893.893,0,1,0-1.263,1.263l2.233,2.233a.893.893,0,0,0,1.263,0Z" transform="translate(-7.5 -8)" fill="#fff" fill-rule="evenodd"/>
    </g>
  </g>
</svg>
