<svg xmlns="http://www.w3.org/2000/svg" width="16.464" height="16.464" viewBox="0 0 16.464 16.464">
  <g id="Group_1158" data-name="Group 1158" transform="translate(-12517.236 11103.7)">
    <g id="Group_1157" data-name="Group 1157" transform="translate(12516.936 -11104)">
      <path id="Path_924" data-name="Path 924" d="M1,8.532a19.059,19.059,0,0,0,.316,3.99A4.24,4.24,0,0,0,2.37,14.694a4.241,4.241,0,0,0,2.172,1.054,19.062,19.062,0,0,0,3.99.316,19.062,19.062,0,0,0,3.99-.316,4.241,4.241,0,0,0,2.172-1.054,4.241,4.241,0,0,0,1.054-2.172,19.062,19.062,0,0,0,.316-3.99,19.062,19.062,0,0,0-.316-3.99A4.241,4.241,0,0,0,14.694,2.37a4.24,4.24,0,0,0-2.172-1.054A19.059,19.059,0,0,0,8.532,1a19.059,19.059,0,0,0-3.99.316A4.241,4.241,0,0,0,2.37,2.37,4.241,4.241,0,0,0,1.316,4.542,19.059,19.059,0,0,0,1,8.532Z" fill="none" stroke="#616161" stroke-linecap="round" stroke-linejoin="round" stroke-width="1.4"/>
    </g>
    <g id="Iconly_Light_Notification" data-name="Iconly/Light/Notification" transform="translate(12517.938 -11102)">
      <g id="Notification" transform="translate(3.5 2)">
        <path id="Stroke_1" data-name="Stroke 1" d="M4.03,7.513c2.673,0,3.91-.343,4.03-1.72,0-1.376-.862-1.287-.862-2.975A3.057,3.057,0,0,0,4.03,0,3.057,3.057,0,0,0,.862,2.818C.862,4.506,0,4.418,0,5.793.12,7.175,1.357,7.513,4.03,7.513Z" transform="translate(0 0)" fill="none" stroke="#616161" stroke-linecap="round" stroke-linejoin="round" stroke-miterlimit="10" stroke-width="1.4"/>
        <path id="Stroke_3" data-name="Stroke 3" d="M2.308,0A1.5,1.5,0,0,1,0,0" transform="translate(2.854 8.94)" fill="none" stroke="#616161" stroke-linecap="round" stroke-linejoin="round" stroke-miterlimit="10" stroke-width="1.4"/>
      </g>
    </g>
  </g>
</svg>
