<svg xmlns="http://www.w3.org/2000/svg" width="22.583" height="22" viewBox="0 0 22.583 22">
  <g id="Group_993" data-name="Group 993" transform="translate(0 0.215)">
    <path id="Path_8168" data-name="Path 8168" d="M1,18.6a4.3,4.3,0,0,0,.309,1.87,1.985,1.985,0,0,0,1.055.948,9,9,0,0,0,2.737.6c1.264.128,2.864.177,4.892.177s3.628-.05,4.892-.177a9,9,0,0,0,2.737-.6,1.985,1.985,0,0,0,1.055-.948,4.3,4.3,0,0,0,.309-1.87,4.3,4.3,0,0,0-.309-1.87,1.985,1.985,0,0,0-1.055-.948,9,9,0,0,0-2.737-.6C13.621,15.05,12.021,15,9.993,15s-3.628.05-4.892.177a9,9,0,0,0-2.737.6,1.985,1.985,0,0,0-1.055.948A4.3,4.3,0,0,0,1,18.6Z" transform="translate(0 -1.41)" fill="none" stroke="#f63e02" stroke-linecap="round" stroke-linejoin="round" stroke-width="2"/>
    <circle id="Ellipse_36" data-name="Ellipse 36" cx="4.5" cy="4.5" r="4.5" transform="translate(14 9.785) rotate(180)" fill="none" stroke="#f63e02" stroke-width="2"/>
    <path id="Path_8169" data-name="Path 8169" d="M19.264,10.86a.9.9,0,0,0,1.271,1.272L21.7,10.97l1.163,1.163a.9.9,0,1,0,1.272-1.272L22.97,9.7l1.162-1.162a.9.9,0,0,0-1.271-1.272L21.7,8.426,20.535,7.263a.9.9,0,0,0-1.272,1.272L20.426,9.7Z" transform="translate(-1.813 -0.604)" fill="#f63e02" fill-rule="evenodd"/>
  </g>
</svg>