<svg xmlns="http://www.w3.org/2000/svg" width="14.167" height="14.332" viewBox="0 0 14.167 14.332">
  <g id="Group_570" data-name="Group 570" transform="translate(-2 -1.858)">
    <path id="Path_936" data-name="Path 936" d="M8.629,2.789H6.115A3.262,3.262,0,0,0,2.75,6.325v5.591a3.259,3.259,0,0,0,3.364,3.536h5.934a3.259,3.259,0,0,0,3.365-3.536V9.208" transform="translate(0 -0.013)" fill="none" stroke="#f63e02" stroke-linecap="round" stroke-linejoin="round" stroke-width="1.5"/>
    <path id="Path_937" data-name="Path 937" d="M8.589,8.245l5.025-5.025a1.6,1.6,0,0,1,2.267,0l.818.818a1.6,1.6,0,0,1,0,2.267L11.65,11.354a1.46,1.46,0,0,1-1.032.428H8.1L8.162,9.24A1.459,1.459,0,0,1,8.589,8.245Z" transform="translate(-1.752)" fill="none" stroke="#f63e02" stroke-linecap="round" stroke-linejoin="round" stroke-width="1.5" fill-rule="evenodd"/>
    <path id="Path_938" data-name="Path 938" d="M15.165,4.6l3.07,3.07" transform="translate(-4.066 -0.607)" fill="none" stroke="#f63e02" stroke-linecap="round" stroke-linejoin="round" stroke-width="1.5"/>
  </g>
</svg>
