<?xml version="1.0" encoding="utf-8"?>
<!-- Generator: Adobe Illustrator 19.0.0, SVG Export Plug-In . SVG Version: 6.00 Build 0)  -->
<svg version="1.1" id="Layer_1" xmlns="http://www.w3.org/2000/svg" xmlns:xlink="http://www.w3.org/1999/xlink" x="0px" y="0px"
	 viewBox="0 0 850.4 850.4" style="enable-background:new 0 0 850.4 850.4;" xml:space="preserve">
<style type="text/css">
	.st0{fill:#EF4323;}
</style>
<g id="XMLID_12513_">
	<g id="XMLID_12514_">
		<path id="XMLID_12521_" class="st0" d="M757.3,596c-14.6,28.2-36.5,42.5-65,42.5c-20.8,0-41.8-7.4-58.2-15.3
			c54.3-11.8,87.4-120.4,87.4-221.5c0-73.2-18.8-151.3-71-156.8c12.7-5,27.7-8.8,43.6-8.8c22.2,0,42.6,7.5,60.4,22.2
			C799.6,295.7,808.6,493.7,757.3,596z"/>
		<path id="XMLID_12520_" class="st0" d="M361.2,400.4l-41.1,49.8c-30.9-15-59.7-25.1-86.8-30.7c-9.9-2.1-19.9-3.1-29.8-3.1
			c-26,0-52.2,7-78.9,21.4c35.9-34.6,82.4-68.1,139.9-68.1C295.9,369.7,328.2,380,361.2,400.4z"/>
		<path id="XMLID_12519_" class="st0" d="M722.3,647C709.1,657.8,694.1,663,677,663c-55,0-125.2-53.9-193.1-105.9
			c-25.6-19.6-51.8-39.7-77-56.7l29.8-37c16,16.2,30.6,31.1,44.2,44.9c54.1,55.2,89.8,91.7,112.3,106.2
			c38.4,24.8,72.1,37.3,100.3,37.3C703.9,651.9,713.5,650.3,722.3,647z"/>
		<path id="XMLID_12517_" class="st0" d="M739.5,235c-13.5-6.3-29.8-10.7-48.1-10.7c-41.7,0-83,22-122.9,65.3
			c-47.2,51.2-94.7,108.2-136.5,159.7c-0.7,0.9-1.4,1.7-2.1,2.6c-0.7,0.9-1.4,1.7-2.1,2.6c-10.9,13.5-21.4,26.6-31.4,39.1
			c-0.7,0.9-1.4,1.7-2,2.6c-0.7,0.9-1.4,1.7-2.1,2.6c-5.4,6.8-10.6,13.4-15.7,19.7c-31,38.9-55.5,69.6-68.5,83.3
			c-40.8,43-95.5,69.8-142.8,69.8c-43.4,0-80.1-21.5-107-62.6c13.9,6.7,33.2,13.3,57.2,13.3c49.1,0,98.2-27.8,146.1-82.6
			c18.9-21.6,41.9-48.9,66.4-78.2c0.7-0.9,1.4-1.7,2.2-2.6c0.7-0.9,1.4-1.7,2.1-2.6c13.2-15.9,26.7-32.3,40.1-48.6
			c0.7-0.9,1.4-1.7,2.1-2.6c0.5-0.6,1-1.2,1.4-1.8c0.3-0.3,0.5-0.5,0.7-0.9c0.5-0.5,1-1.1,1.4-1.7c0.3-0.3,0.7-0.7,0.9-1.1
			c0.7-0.8,1.4-1.7,2.1-2.5c25.2-30.6,49.6-60.6,70-85.7c26.2-32.1,45.1-55.3,51-62c6.2-7.1,62.7-69.7,133.4-69.7
			C673.5,179.6,708.4,198.2,739.5,235z"/>
		<line id="XMLID_12516_" class="st0" x1="361.2" y1="400.4" x2="320.1" y2="450.2"/>
		<line id="XMLID_12515_" class="st0" x1="436.8" y1="463.4" x2="406.9" y2="500.4"/>
	</g>
</g>
</svg>
